<svg width="469" height="328" viewBox="0 0 469 328" fill="none" xmlns="http://www.w3.org/2000/svg">
<path d="M307.932 327.177C287.126 327.177 274.815 325.27 271.001 321.456C269.267 319.722 264.239 316.428 255.916 311.573C247.941 306.718 236.324 300.476 221.066 292.847C217.598 291.113 211.356 287.819 202.34 282.964C193.324 277.763 182.748 272.214 170.611 266.319C168.877 265.279 165.93 263.718 161.768 261.638C157.954 259.557 153.966 257.477 149.805 255.396C145.644 252.969 142.523 251.235 140.442 250.194L131.079 245.513C130.386 245.166 129.345 244.646 127.958 243.953C126.571 243.259 125.011 242.392 123.277 241.352L108.713 234.07C106.285 232.683 103.511 231.122 100.39 229.388C97.6159 227.654 94.6683 226.094 91.5474 224.707L22.8869 188.296C20.1128 180.32 17.6854 173.038 15.6047 166.449C13.5241 159.861 12.137 153.966 11.4435 148.764C10.75 143.563 9.36288 137.147 7.28226 129.518C5.20164 121.89 2.77425 113.047 8.52429e-05 102.991C4.16133 93.9745 7.9758 86.1722 11.4435 79.5835C14.9112 72.6481 18.0321 67.2732 20.8063 63.4587C22.8869 60.6846 25.1409 57.5636 27.5683 54.0959C29.9957 50.2815 33.29 45.0799 37.4513 38.4913C39.1851 36.0639 40.7456 33.4631 42.1327 30.689C43.8665 27.568 45.427 24.6205 46.8141 21.8463C49.5882 21.1528 53.2293 20.1125 57.7373 18.7254C62.2453 17.3383 65.713 16.4714 68.1404 16.1246C74.0355 15.0843 80.7975 13.3504 88.4265 10.923C96.0554 8.49566 102.124 6.58843 106.632 5.20134C111.487 3.46749 117.555 1.73365 124.837 -0.000203407L162.809 23.4068C171.131 28.6083 179.107 33.1163 186.736 36.9308C194.365 40.7453 201.647 44.9065 208.582 49.4145L223.147 58.7773C233.55 65.366 241.526 70.5675 247.074 74.382C252.969 78.1965 256.61 80.7972 257.997 82.1843C259.384 83.5714 262.158 85.4786 266.32 87.906C270.481 90.3334 276.029 93.6277 282.965 97.789C293.368 104.031 303.771 110.273 314.174 116.515C324.924 122.41 335.5 128.478 345.903 134.72C352.492 138.881 357.867 142.522 362.028 145.643C366.189 149.111 371.218 154.139 377.113 160.728C383.008 166.97 388.036 173.558 392.197 180.494L420.806 228.348C435.717 253.315 446.987 272.388 454.616 285.565C462.591 298.742 466.753 306.198 467.099 307.932C468.14 311.053 468.66 313.48 468.66 315.214C468.66 319.028 466.926 321.629 463.458 323.016C460.337 324.403 456.35 325.097 451.495 325.097C445.6 325.097 439.531 325.27 433.289 325.617C427.048 325.617 420.979 325.617 415.084 325.617L322.496 326.657C320.069 326.657 317.642 326.831 315.214 327.177C312.787 327.177 310.359 327.177 307.932 327.177ZM38.4916 169.57C39.1851 169.57 39.8787 169.57 40.5722 169.57C41.2657 169.224 41.9593 169.05 42.6528 169.05L53.0559 167.49C57.2172 167.49 63.8058 165.236 72.8218 160.728C76.9831 158.647 82.358 156.393 88.9466 153.966C95.5353 151.192 99.8699 149.805 101.951 149.805C102.644 149.111 104.378 146.337 107.152 141.482C110.273 136.28 112.007 132.986 112.354 131.599L114.954 124.837C116.341 121.023 117.902 117.902 119.636 115.474C121.716 112.7 123.45 110.446 124.837 108.712C127.958 104.898 130.559 101.257 132.64 97.789C133.68 96.0551 134.894 94.1479 136.281 92.0673C138.015 89.6399 140.095 87.0391 142.523 84.2649C142.176 82.8779 141.309 80.2771 139.922 76.4626C138.535 72.6481 136.454 67.62 133.68 61.3781C128.478 48.8944 125.184 40.5719 123.797 36.4107L118.595 19.7657L104.551 24.9672C101.084 26.3543 97.6159 27.7414 94.1482 29.1285C90.6805 30.1688 88.0797 30.8623 86.3459 31.2091L60.3381 38.4913C59.6446 39.5316 57.9107 42.1324 55.1365 46.2936C52.7091 50.1081 51.1487 52.5355 50.4551 53.5758L35.3706 77.5029C32.9432 81.6642 30.1691 86.3456 27.0482 91.5471C23.9272 96.4019 20.8063 101.257 17.6854 106.111L24.9675 130.559C26.3546 135.067 27.5683 138.534 28.6086 140.962C29.6489 143.042 30.5159 145.296 31.2094 147.724L38.4916 169.57ZM352.665 193.498V158.127L317.295 135.24C314.867 133.506 311.92 131.772 308.452 130.039C304.984 127.958 301.343 126.051 297.529 124.317L287.126 119.115C285.739 118.422 284.352 117.728 282.965 117.035C281.577 116.341 280.537 115.821 279.844 115.474L239.792 89.9867C237.364 88.2528 235.11 86.8657 233.03 85.8254C231.296 84.7851 229.909 83.9182 228.868 83.2246L139.402 27.0479L144.083 39.0114C145.123 41.7856 146.164 44.7331 147.204 47.8541C148.244 50.6282 148.764 52.7088 148.764 54.0959C148.764 55.483 149.285 58.2572 150.325 62.4184C151.712 66.5797 153.272 70.7409 155.006 74.9021C156.74 78.7166 157.954 81.6642 158.647 83.7448C160.381 86.1722 164.543 89.2931 171.131 93.1076C174.946 94.8414 178.067 96.5753 180.494 98.3091C182.921 100.043 184.829 101.777 186.216 103.511C189.337 106.632 192.978 109.579 197.139 112.353L203.381 116.515C205.461 117.902 207.542 119.115 209.623 120.156C212.05 121.196 213.957 122.063 215.344 122.756C221.586 124.837 225.574 126.398 227.308 127.438C229.389 128.478 233.03 130.559 238.231 133.68C240.312 135.067 242.566 136.454 244.993 137.841C247.421 138.881 250.021 139.922 252.796 140.962C257.304 142.349 261.465 144.256 265.279 146.684C269.44 149.111 276.029 153.272 285.045 159.167L318.335 174.772C321.803 176.159 324.924 177.719 327.698 179.453C330.472 180.84 332.726 182.054 334.46 183.094L352.665 193.498ZM69.7009 127.958C64.4993 127.958 60.1647 125.531 56.697 120.676C53.5761 115.474 52.0156 109.579 52.0156 102.991C52.0156 95.3616 54.0962 88.0794 58.2575 81.144C62.4187 73.8618 67.2735 67.9667 72.8218 63.4587C78.7169 58.6039 84.2652 56.1765 89.4668 56.1765C95.7086 56.1765 100.39 58.2572 103.511 62.4184C106.632 66.5797 108.192 72.128 108.192 79.0634C108.192 82.1843 106.979 86.5189 104.551 92.0673C102.124 97.2688 99.003 102.644 95.1885 108.192C91.374 113.74 87.2128 118.422 82.7048 122.236C78.1968 126.051 73.8621 127.958 69.7009 127.958ZM316.254 267.36C323.19 261.811 328.391 256.783 331.859 252.275C335.674 247.767 338.101 243.779 339.141 240.312C340.182 236.844 341.049 233.549 341.742 230.429C342.782 227.308 343.996 224.533 345.383 222.106L348.504 215.344C342.956 211.876 337.581 208.582 332.379 205.461C327.525 201.993 322.67 198.526 317.815 195.058C314 193.671 310.88 192.457 308.452 191.417C306.372 190.377 303.424 188.643 299.61 186.215L289.206 178.933C277.069 170.264 268.92 165.929 264.759 165.929C260.598 165.929 254.876 163.329 247.594 158.127L223.667 140.442C221.586 138.708 218.639 137.147 214.824 135.76C211.01 134.026 204.594 131.599 195.578 128.478C189.337 126.051 184.482 123.45 181.014 120.676C178.933 118.942 176.853 117.555 174.772 116.515C173.038 115.474 171.305 114.434 169.571 113.394L162.289 109.232C160.901 108.192 159.341 107.325 157.607 106.632C156.22 105.938 154.66 105.071 152.926 104.031C146.337 111.66 143.043 116.688 143.043 119.115C143.043 121.889 141.136 126.224 137.321 132.119L122.757 153.966L129.519 158.647C133.333 161.421 137.321 163.675 141.482 165.409L148.244 168.53C155.873 172.345 162.289 176.159 167.49 179.974C170.264 181.707 172.518 183.268 174.252 184.655C175.986 186.042 177.546 187.082 178.933 187.776L245.513 224.707C247.941 226.094 251.062 228.001 254.876 230.429C258.691 232.856 262.678 235.457 266.84 238.231L298.049 257.997C299.436 258.69 300.823 259.557 302.21 260.598C303.944 261.291 305.505 261.985 306.892 262.678L316.254 267.36ZM277.763 301.69L302.73 280.884C301.69 280.19 300.65 279.67 299.61 279.323C298.569 278.63 297.702 277.936 297.009 277.243C295.968 276.549 294.928 275.855 293.888 275.162C292.847 274.468 291.634 273.775 290.247 273.081L285.045 269.44C284.352 268.747 281.924 267.186 277.763 264.759L246.554 246.033C245.513 245.34 243.606 244.299 240.832 242.912C238.405 241.178 235.11 239.618 230.949 238.231C225.401 236.15 220.546 233.896 216.385 231.469C212.57 229.041 208.756 226.961 204.941 225.227C202.861 222.8 200.953 220.892 199.22 219.505C197.832 218.118 196.619 216.731 195.578 215.344C193.845 213.61 190.03 211.53 184.135 209.102L177.373 206.501C169.744 203.727 163.676 200.086 159.168 195.578C153.966 190.377 149.805 187.602 146.684 187.256C142.523 186.909 138.015 185.002 133.16 181.534C127.612 177.719 122.757 174.772 118.595 172.691C114.434 170.264 110.273 168.183 106.112 166.449C104.725 167.143 101.43 168.183 96.2288 169.57C91.374 170.957 88.0797 171.824 86.3459 172.171C82.8782 172.518 79.5838 173.385 76.4629 174.772C73.6887 176.159 70.3944 177.719 66.58 179.453L57.2172 184.135C66.2332 189.683 74.7291 195.058 82.7048 200.26C91.0273 205.461 99.6965 210.143 108.713 214.304L124.837 221.586C126.571 222.279 128.478 223.146 130.559 224.187C132.64 225.227 134.72 226.094 136.801 226.787C138.535 227.481 141.136 228.695 144.603 230.429C148.418 232.162 152.926 234.416 158.127 237.191L189.337 253.836C194.538 256.61 199.74 259.557 204.941 262.678C210.143 265.799 215.344 268.747 220.546 271.521C224.014 273.255 227.308 275.162 230.429 277.243C233.55 279.323 236.844 281.23 240.312 282.964C244.126 285.045 249.501 287.992 256.437 291.807C263.719 295.275 270.828 298.569 277.763 301.69ZM299.61 308.452C300.997 308.452 303.771 308.452 307.932 308.452C312.44 308.105 317.468 307.932 323.016 307.932C329.258 307.932 335.674 307.932 342.262 307.932C349.198 307.585 356.653 307.412 364.629 307.412C373.645 307.412 382.488 307.585 391.157 307.932C399.826 307.932 408.495 307.932 417.165 307.932C421.326 307.932 425.314 304.984 429.128 299.089C432.943 292.847 434.85 287.819 434.85 284.005C434.85 282.271 433.289 278.803 430.168 273.601C427.394 268.4 424.1 263.198 420.286 257.997L413.003 247.594C410.229 243.432 406.761 238.231 402.6 231.989C398.439 225.747 394.971 219.852 392.197 214.304L388.036 205.981C386.996 203.901 385.435 201.3 383.354 198.179C381.274 194.711 379.193 191.59 377.113 188.816L369.31 177.893L368.27 184.135C367.923 186.215 367.75 188.296 367.75 190.377C367.75 192.457 367.75 194.711 367.75 197.139V200.26C368.097 200.953 368.27 201.82 368.27 202.86C368.27 204.594 370.004 208.409 373.472 214.304C375.205 217.078 376.939 220.025 378.673 223.146C380.407 226.267 382.488 229.562 384.915 233.029C381.447 230.255 377.806 227.828 373.992 225.747C370.524 223.667 367.75 222.626 365.669 222.626C362.548 222.626 360.988 224.707 360.988 228.868C360.988 232.336 364.109 237.711 370.351 244.993C376.592 251.928 383.181 258.69 390.117 265.279C388.383 264.585 386.475 264.065 384.395 263.718C382.661 263.372 380.927 263.025 379.193 262.678L367.75 257.997C366.363 257.303 364.109 256.783 360.988 256.436C357.867 256.09 355.266 255.916 353.185 255.916C347.984 255.916 343.649 257.823 340.182 261.638C336.714 265.452 334.98 268.747 334.98 271.521C334.98 274.642 336.194 277.589 338.621 280.363C341.395 282.791 345.036 285.738 349.544 289.206C345.73 289.206 342.609 289.379 340.182 289.726C338.101 289.726 336.367 289.726 334.98 289.726C333.246 289.726 331.339 289.9 329.258 290.246C327.524 290.246 325.617 290.246 323.537 290.246C316.948 290.246 311.226 292.154 306.372 295.968C301.517 299.783 297.529 303.77 294.408 307.932L299.61 308.452Z" fill="#63E12D"/>
</svg>
