<svg width="481" height="387" viewBox="0 0 481 387" fill="none" xmlns="http://www.w3.org/2000/svg">
<path d="M76.1023 277.071V274.855C76.3485 251.335 78.8114 232.617 83.4908 218.702C88.1703 204.787 94.82 193.519 103.44 184.899C112.06 176.279 122.404 168.336 134.472 161.071C141.737 156.638 148.264 151.404 154.052 145.37C159.839 139.213 164.396 132.132 167.721 124.128C171.169 116.124 172.893 107.257 172.893 97.5292C172.893 85.4612 170.06 74.9941 164.396 66.1278C158.731 57.2615 151.158 50.4271 141.676 45.6245C132.194 40.8219 121.665 38.4206 110.09 38.4206C99.992 38.4206 90.2637 40.5141 80.9048 44.7009C71.546 48.8878 63.7264 55.4759 57.4461 64.4654C51.1658 73.4548 47.5331 85.2149 46.548 99.7458H2.7688e-06C0.985146 78.8115 6.40343 60.8942 16.2549 45.9939C26.2294 31.0937 39.3441 19.7029 55.599 11.8218C71.977 3.94065 90.1405 8.50029e-05 110.09 8.50029e-05C131.763 8.50029e-05 150.604 4.31008 166.612 12.9301C182.744 21.5501 195.181 33.3718 203.924 48.3952C212.791 63.4186 217.224 80.5355 217.224 99.7458C217.224 113.291 215.13 125.544 210.944 136.504C206.88 147.464 200.969 157.253 193.211 165.873C185.576 174.493 176.341 182.128 165.504 188.778C154.667 195.551 145.986 202.693 139.459 210.205C132.933 217.593 128.192 226.398 125.236 236.619C122.281 246.84 120.68 259.585 120.434 274.855V277.071H76.1023ZM99.7457 386.422C90.6331 386.422 82.8135 383.159 76.287 376.632C69.7604 370.106 66.4971 362.286 66.4971 353.174C66.4971 344.061 69.7604 336.242 76.287 329.715C82.8135 323.188 90.6331 319.925 99.7457 319.925C108.858 319.925 116.678 323.188 123.204 329.715C129.731 336.242 132.994 344.061 132.994 353.174C132.994 359.208 131.455 364.749 128.376 369.798C125.421 374.847 121.419 378.911 116.37 381.989C111.444 384.945 105.903 386.422 99.7457 386.422ZM339.874 277.071V274.855C340.12 251.335 342.583 232.617 347.263 218.702C351.942 204.787 358.592 193.519 367.212 184.899C375.832 176.279 386.176 168.336 398.244 161.071C405.509 156.638 412.036 151.404 417.824 145.37C423.611 139.213 428.168 132.132 431.492 124.128C434.94 116.124 436.664 107.257 436.664 97.5292C436.664 85.4612 433.832 74.9941 428.168 66.1278C422.503 57.2615 414.93 50.4271 405.448 45.6245C395.966 40.8219 385.437 38.4206 373.862 38.4206C363.764 38.4206 354.036 40.5141 344.677 44.7009C335.318 48.8878 327.498 55.4759 321.218 64.4654C314.938 73.4548 311.305 85.2149 310.32 99.7458H263.772C264.757 78.8115 270.175 60.8942 280.027 45.9939C290.001 31.0937 303.116 19.7029 319.371 11.8218C335.749 3.94065 353.912 8.50029e-05 373.862 8.50029e-05C395.535 8.50029e-05 414.376 4.31008 430.384 12.9301C446.516 21.5501 458.953 33.3718 467.696 48.3952C476.563 63.4186 480.996 80.5355 480.996 99.7458C480.996 113.291 478.902 125.544 474.716 136.504C470.652 147.464 464.741 157.253 456.983 165.873C449.348 174.493 440.112 182.128 429.276 188.778C418.439 195.551 409.758 202.693 403.231 210.205C396.705 217.593 391.964 226.398 389.008 236.619C386.053 246.84 384.452 259.585 384.206 274.855V277.071H339.874ZM363.518 386.422C354.405 386.422 346.585 383.159 340.059 376.632C333.532 370.106 330.269 362.286 330.269 353.174C330.269 344.061 333.532 336.242 340.059 329.715C346.585 323.188 354.405 319.925 363.518 319.925C372.63 319.925 380.45 323.188 386.976 329.715C393.503 336.242 396.766 344.061 396.766 353.174C396.766 359.208 395.227 364.749 392.148 369.798C389.193 374.847 385.191 378.911 380.142 381.989C375.216 384.945 369.675 386.422 363.518 386.422Z" fill="#3880EC"/>
</svg>
