<svg width="325" height="275" viewBox="0 0 325 275" fill="none" xmlns="http://www.w3.org/2000/svg">
<path d="M17.5245 275C9.78147 275 4.97613 266.579 8.91522 259.913L153.891 14.5695C157.761 8.01926 167.239 8.01925 171.109 14.5695L316.085 259.913C320.024 266.579 315.218 275 307.475 275H17.5245ZM162.5 244.206C168.652 244.206 173.885 242.057 178.199 237.76C182.593 233.384 184.79 228.132 184.79 222.005C184.79 215.878 182.593 210.666 178.199 206.369C173.885 201.993 168.652 199.805 162.5 199.805C156.348 199.805 151.075 201.993 146.681 206.369C142.367 210.666 140.21 215.878 140.21 222.005C140.21 228.132 142.367 233.384 146.681 237.76C151.075 242.057 156.348 244.206 162.5 244.206ZM147.621 163.096C147.765 168.513 152.198 172.83 157.618 172.83H167.382C172.802 172.83 177.235 168.513 177.379 163.096L179.004 101.932C179.154 96.3074 174.635 91.6667 169.008 91.6667H155.992C150.365 91.6667 145.846 96.3074 145.996 101.932L147.621 163.096Z" fill="#EE9837"/>
</svg>
